<svg xmlns="http://www.w3.org/2000/svg" width="3000" height="3000" viewBox="0 0 3000 3000" version="1.1"><path d="M 2323 565.440 C 2237.475 604.113, 2089.425 671.023, 1994 714.128 L 1820.500 792.500 1826 795.196 C 1833.337 798.793, 1856.425 812.591, 1872.500 822.986 C 2074.615 953.683, 2209.839 1169.308, 2236.870 1404 C 2240.829 1438.376, 2241.501 1451.605, 2241.441 1494 C 2241.380 1537.116, 2240.376 1554.399, 2235.922 1588.997 C 2210.715 1784.786, 2109.935 1958.514, 1953.500 2075.844 C 1905.203 2112.068, 1848.705 2143.658, 1790.500 2166.984 C 1675.823 2212.940, 1548.970 2229.131, 1423 2213.890 C 1174.168 2183.784, 949.876 2033.964, 823.089 1813.168 C 771.226 1722.850, 737.222 1622.287, 723.990 1520.093 C 719.214 1483.207, 718.554 1471.387, 718.544 1422.500 C 718.535 1373.397, 719.319 1359.277, 724.010 1324.174 C 725.080 1316.170, 725.814 1309.481, 725.643 1309.309 C 725.157 1308.823, 706.734 1346.260, 696.270 1369 C 609.796 1556.912, 550.232 1775.819, 520.087 2016.500 C 509.839 2098.313, 503.867 2171.647, 499.809 2265.500 C 498.186 2303.022, 498.184 2431.628, 499.805 2462.500 L 501.013 2485.500 515.635 2500 C 523.676 2507.975, 529.919 2513.893, 529.507 2513.150 C 528.894 2512.044, 530.267 2511.914, 537.129 2512.432 C 569.335 2514.864, 659.297 2515.648, 717 2514 C 1120.407 2502.478, 1482.992 2413.472, 1759 2258.214 C 1995.820 2124.999, 2166.312 1950.481, 2296.048 1708.481 C 2421.943 1473.646, 2502.217 1176.061, 2528.435 847 C 2530.848 816.710, 2532.820 785.636, 2535.097 742 C 2535.686 730.725, 2536.407 684.034, 2536.700 638.243 L 2537.233 554.985 2528.366 545.325 C 2515.813 531.647, 2479.911 494.988, 2479.142 495.062 C 2478.789 495.097, 2408.525 526.767, 2323 565.440" stroke="none" fill="#ac2b2b" fill-rule="evenodd"/><path d="M 1441 0.624 C 1403.617 2.340, 1356.961 6.087, 1323.500 10.060 C 1076.904 39.341, 841.305 129.372, 638 272.013 C 542.357 339.117, 451.397 420.579, 373.937 508.500 C 158.911 752.565, 29.045 1060.490, 4.065 1385.500 C -1.368 1456.181, -1.553 1536.908, 3.554 1608 C 25.998 1920.437, 146.294 2218.824, 347.040 2460 C 404.066 2528.511, 471.108 2595.580, 539.575 2652.611 C 780.819 2853.559, 1078.510 2973.638, 1392 2996.450 C 1465.562 3001.803, 1560.544 3001.027, 1633.100 2994.479 C 1951.793 2965.720, 2252.426 2836.692, 2491.500 2626.063 C 2540.331 2583.043, 2595.406 2527.313, 2637.459 2478.370 C 2838.506 2244.386, 2962.187 1955.661, 2992.952 1648.500 C 2995.711 1620.956, 2997.870 1590.951, 2998.654 1569.250 C 2999.017 1559.212, 2999.694 1551, 3000.157 1551 C 3000.621 1551, 3000.993 1527.487, 3000.985 1498.750 C 3000.976 1470.013, 3000.598 1447.086, 3000.144 1447.802 C 2999.680 1448.533, 2999.028 1441.081, 2998.656 1430.802 C 2997.859 1408.749, 2995.704 1378.767, 2992.921 1351 C 2962.844 1050.910, 2843.668 767.786, 2650.072 536.500 C 2603.728 481.134, 2545.535 421.471, 2491.500 373.923 C 2253.202 164.234, 1953.904 35.152, 1638.500 6.040 C 1590.356 1.597, 1572.212 0.824, 1509.500 0.548 C 1475.950 0.401, 1445.125 0.435, 1441 0.624 M 2452.500 506.942 C 2429.187 517.544, 2179.812 630.201, 1644.506 871.961 C 1544.409 917.168, 1462.391 954.276, 1462.243 954.424 C 1462.095 954.572, 1583.216 1184.824, 1731.402 1466.096 C 1879.587 1747.368, 2000.667 1977.663, 2000.470 1977.861 C 2000.272 1978.060, 1597.017 1747.660, 1104.348 1465.861 C 611.678 1184.063, 208.341 953.513, 208.042 953.528 C 207.229 953.570, 195.393 982.587, 186.026 1007.500 C 141.224 1126.659, 112.083 1256.582, 101.578 1384 C 97.962 1427.865, 97.524 1440.396, 97.524 1500 C 97.524 1569.020, 98.995 1597.679, 105.558 1656.500 C 145.660 2015.927, 324.748 2348.069, 603 2579.068 C 824.909 2763.291, 1097.730 2874.788, 1384.500 2898.452 C 1428.482 2902.081, 1440.291 2902.487, 1501 2902.450 C 1565.139 2902.411, 1583.025 2901.664, 1632.500 2896.956 C 2010.339 2860.998, 2357.494 2673.733, 2594.551 2378 C 2768.538 2160.948, 2873.969 1897.847, 2897.959 1620.852 C 2901.891 1575.457, 2902.494 1559.375, 2902.494 1500 C 2902.494 1440.625, 2901.891 1424.543, 2897.959 1379.148 C 2870.960 1067.401, 2740.875 774.088, 2528.024 545.022 C 2512.054 527.835, 2479.882 494.981, 2479.098 495.060 C 2478.769 495.093, 2466.800 500.440, 2452.500 506.942 M 0.465 1500 C 0.465 1528.875, 0.593 1540.688, 0.749 1526.250 C 0.905 1511.812, 0.905 1488.187, 0.749 1473.750 C 0.593 1459.313, 0.465 1471.125, 0.465 1500" stroke="none" fill="#e3e3e3" fill-rule="evenodd"/></svg>
