<?xml version="1.0" standalone="no"?>
<!DOCTYPE svg PUBLIC "-//W3C//DTD SVG 20010904//EN"
 "http://www.w3.org/TR/2001/REC-SVG-20010904/DTD/svg10.dtd">
<svg version="1.0" xmlns="http://www.w3.org/2000/svg"
 width="3000.000000pt" height="3000.000000pt" viewBox="0 0 3000.000000 3000.000000"
 preserveAspectRatio="xMidYMid meet">

<g transform="translate(0.000000,3000.000000) scale(0.100000,-0.100000)"
fill="#000000" stroke="none">
<path d="M23450 24444 c-734 -332 -1438 -651 -1565 -708 -126 -57 -999 -451
-1940 -876 -940 -425 -2522 -1139 -3515 -1587 -993 -448 -1806 -816 -1807
-817 -2 -1 1210 -2305 2693 -5120 1483 -2814 2695 -5118 2693 -5120 -2 -1
-4034 2303 -8959 5121 -4925 2817 -8960 5123 -8966 5123 -14 0 -203 -472 -312
-780 -729 -2058 -967 -4274 -691 -6450 242 -1916 887 -3778 1882 -5440 1191
-1989 2860 -3654 4857 -4845 1832 -1092 3905 -1755 6035 -1929 369 -31 515
-37 965 -43 465 -6 802 3 1200 33 3645 268 7030 1937 9458 4662 2012 2258
3242 5115 3501 8127 40 459 46 621 46 1205 0 584 -6 746 -46 1205 -255 2974
-1458 5796 -3428 8045 -220 250 -744 802 -760 799 -3 0 -607 -273 -1341 -605z"/>
</g>
</svg>
